<svg width="238" height="319" viewBox="0 0 238 319" fill="none" xmlns="http://www.w3.org/2000/svg">
<path d="M108.281 137.476C57.3671 143.115 21.4316 125.097 13.6527 77.5634C59.947 64.2652 91.6029 89.0422 108.281 137.476Z" fill="#EB875F"/>
<path d="M136.981 3.7111C163.704 48.4492 162.018 89.1158 120.896 115.949C88.9644 78.6465 98.7676 39.1431 136.981 3.7111Z" fill="#93E6AA"/>
<path d="M59.6891 224.633C55.1362 172.72 74.3781 136.854 123.085 130.627C135.565 178.117 109.525 209.398 59.6891 224.633Z" fill="#93E6AA"/>
<path opacity="0.9" d="M129 319C175.944 319 214 310.941 214 301C214 291.059 175.944 283 129 283C82.0558 283 44 291.059 44 301C44 310.941 82.0558 319 129 319Z" fill="#66BB6A"/>
<path d="M134 164H126C122.686 164 120 166.686 120 170V248C120 251.314 122.686 254 126 254H134C137.314 254 140 251.314 140 248V170C140 166.686 137.314 164 134 164Z" fill="#6D4C41"/>
<path d="M136.2 157H121.8C115.835 157 111 161.417 111 166.867V295.133C111 300.583 115.835 305 121.8 305H136.2C142.165 305 147 300.583 147 295.133V166.867C147 161.417 142.165 157 136.2 157Z" fill="#6D4C41"/>
<path d="M130 184L97 154Z" fill="black"/>
<path d="M130 184L97 154" stroke="#6D4C41" stroke-width="12" stroke-linecap="round"/>
<path d="M130 184L97 154Z" fill="black"/>
<path d="M130 184L97 154" stroke="#6D4C41" stroke-width="12" stroke-linecap="round"/>
<path d="M130 199L162 169Z" fill="black"/>
<path d="M130 199L162 169" stroke="#6D4C41" stroke-width="12" stroke-linecap="round"/>
<path d="M130 199L162 169Z" fill="black"/>
<path d="M130 199L162 169" stroke="#6D4C41" stroke-width="12" stroke-linecap="round"/>
<path d="M120.592 120.016C152.567 160.036 156.542 200.038 120.522 232.016C84.542 199.993 88.5669 159.996 120.592 120.016Z" fill="#EB875F"/>
<path d="M122.958 122.962C154.383 82.5089 192.344 69.2818 231.863 96.817C209.151 139.292 169.323 144.741 122.958 122.962Z" fill="#EB875F"/>
<path d="M117.791 129.221C168.968 131.437 201.724 154.74 202.14 202.904C154.356 208.964 126.863 179.636 117.791 129.221Z" fill="#EB875F"/>
<path d="M208.792 147.02C169.159 164.246 136.597 158.061 120.444 120.339C154.776 97.8626 185.319 110.736 208.792 147.02Z" fill="#9FC0F5"/>
<path d="M179.324 66.5572C175.866 106.365 156.442 129.105 118.552 123.403C115.389 85.2171 139.374 67.3533 179.324 66.5572Z" fill="#9FC0F5"/>
<path d="M33.2059 190.76C48.213 144.919 77.7082 117.69 121.588 121.966C114.964 165.553 81.3288 187.464 33.2059 190.76Z" fill="#FAE469"/>
<path d="M67.5159 52.4722C106.722 64.8025 128.905 89.7188 122.82 127.272C85.1327 122.083 67.813 93.5704 67.5159 52.4722Z" fill="#93E6AA"/>
</svg>
