<svg width="86" height="79" viewBox="0 0 86 79" fill="none" xmlns="http://www.w3.org/2000/svg">
<path opacity="0.9" d="M43 79C66.7482 79 86 70.9411 86 61C86 51.0589 66.7482 43 43 43C19.2518 43 0 51.0589 0 61C0 70.9411 19.2518 79 43 79Z" fill="#66BB6A"/>
<path d="M44.5 10H38.5C36.0147 10 34 11.6118 34 13.6V60.4C34 62.3882 36.0147 64 38.5 64H44.5C46.9853 64 49 62.3882 49 60.4V13.6C49 11.6118 46.9853 10 44.5 10Z" fill="#6D4C41"/>
<path d="M65.1199 25.5925L62.6131 22.6193C61.5747 21.3878 60.1018 20.7419 59.3232 21.1768L40.9974 31.413C40.2188 31.8479 40.4294 33.1988 41.4678 34.4303L43.9747 37.4035C45.0131 38.635 46.486 39.2809 47.2645 38.846L65.5904 28.6097C66.3689 28.1749 66.1583 26.824 65.1199 25.5925Z" fill="#6D4C41"/>
<path d="M40.3276 26.7093L43.6391 24.6325C45.0108 23.7723 45.4708 22.3862 44.6665 21.5366L25.7351 1.53822C24.9308 0.688623 23.1669 0.697233 21.7952 1.55745L18.4836 3.63421C17.1119 4.49443 16.6519 5.88052 17.4562 6.73012L36.3876 26.7285C37.1919 27.5781 38.9559 27.5695 40.3276 26.7093Z" fill="#6D4C41"/>
</svg>
