<svg width="40" height="40" viewBox="0 0 40 40" fill="none" xmlns="http://www.w3.org/2000/svg">
<path d="M35.5556 4H33.3333V0H28.8889V4H11.1111V0H6.66667V4H4.44444C1.97778 4 0.0222222 5.8 0.0222222 8L0 36C0 38.2 1.97778 40 4.44444 40H35.5556C38 40 40 38.2 40 36V8C40 5.8 38 4 35.5556 4ZM35.5556 36H4.44444V16H35.5556V36ZM13.3333 24H8.88889V20H13.3333V24ZM22.2222 24H17.7778V20H22.2222V24ZM31.1111 24H26.6667V20H31.1111V24ZM13.3333 32H8.88889V28H13.3333V32ZM22.2222 32H17.7778V28H22.2222V32ZM31.1111 32H26.6667V28H31.1111V32Z" fill="#999999"/>
</svg>
