<svg width="135" height="173" viewBox="0 0 135 173" fill="none" xmlns="http://www.w3.org/2000/svg">
<path opacity="0.9" d="M69.7804 173C96.7323 173 118.581 165.85 118.581 157.029C118.581 148.209 96.7323 141.059 69.7804 141.059C42.8285 141.059 20.9797 148.209 20.9797 157.029C20.9797 165.85 42.8285 173 69.7804 173Z" fill="#66BB6A"/>
<path opacity="0.95" d="M72.9729 56.1855H65.6756C62.653 56.1855 60.2026 59.3181 60.2026 63.1822V154.139C60.2026 158.003 62.653 161.136 65.6756 161.136H72.9729C75.9955 161.136 78.4459 158.003 78.4459 154.139V63.1822C78.4459 59.3181 75.9955 56.1855 72.9729 56.1855Z" fill="#6D4C41"/>
<g opacity="0.95">
<path d="M62.9392 106.379L25.5405 71.7002L62.9392 106.379Z" fill="black"/>
<path d="M62.9392 106.379L25.5405 71.7002" stroke="#6D4C41" stroke-width="12" stroke-linecap="round"/>
</g>
<g opacity="0.95">
<path d="M69.3244 71.7L37.5 45L69.3244 71.7Z" fill="black"/>
<path d="M69.3244 71.7L37.5 45" stroke="#6D4C41" stroke-width="12" stroke-linecap="round"/>
</g>
<g opacity="0.95">
<path d="M67.5 105.467L103.986 70.7874L67.5 105.467Z" fill="black"/>
<path d="M67.5 105.467L103.986 70.7874" stroke="#6D4C41" stroke-width="12" stroke-linecap="round"/>
</g>
<g opacity="0.95">
<path d="M67.5 80.8262L103.986 46.147L67.5 80.8262Z" fill="black"/>
<path d="M67.5 80.8262L103.986 46.147" stroke="#6D4C41" stroke-width="12" stroke-linecap="round"/>
</g>
<path opacity="0.95" d="M87.1114 93.634C113.56 93.634 135 72.6733 135 46.817C135 20.9607 113.56 0 87.1114 0C60.6633 0 39.2229 20.9607 39.2229 46.817C39.2229 72.6733 60.6633 93.634 87.1114 93.634Z" fill="#9FC0F5"/>
<path d="M28.277 91.2929C43.894 91.2929 56.5541 79.0352 56.5541 63.9145C56.5541 48.7938 43.894 36.5361 28.277 36.5361C12.6601 36.5361 0 48.7938 0 63.9145C0 79.0352 12.6601 91.2929 28.277 91.2929Z" fill="#9FC0F5"/>
</svg>
