<svg width="214" height="227" viewBox="0 0 214 227" fill="none" xmlns="http://www.w3.org/2000/svg">
<path opacity="0.9" d="M116 227C156.869 227 190 217.15 190 205C190 192.85 156.869 183 116 183C75.1309 183 42 192.85 42 205C42 217.15 75.1309 227 116 227Z" fill="#66BB6A"/>
<path d="M120.8 94H111.2C107.224 94 104 97.3131 104 101.4V197.6C104 201.687 107.224 205 111.2 205H120.8C124.776 205 128 201.687 128 197.6V101.4C128 97.3131 124.776 94 120.8 94Z" fill="#6D4C41"/>
<path d="M116 118L77 82L116 118Z" fill="black"/>
<path d="M116 118L77 82" stroke="#6D4C41" stroke-width="12" stroke-linecap="round"/>
<path d="M116 137L153 100L116 137Z" fill="black"/>
<path d="M116 137L153 100" stroke="#6D4C41" stroke-width="12" stroke-linecap="round"/>
<path d="M108.879 9.47994C139.693 46.7016 142.985 83.3968 107.087 112.016C72.2125 82.0428 76.7843 45.4981 108.879 9.47994Z" fill="#9FC0F5"/>
<path d="M50.7388 21.1378C105.434 30.6488 132.988 61.1557 117.035 114.956C63.1978 115.145 43.398 78.6395 50.7388 21.1378Z" fill="#93E6AA"/>
<path d="M170.515 23.5921C176.616 91.7202 151.682 133.966 88.2877 131.526C71.8802 67.4102 105.68 32.5598 170.515 23.5921Z" fill="#EB875F"/>
<path d="M197.354 54.6734C183.144 110.472 151.042 142.493 100.31 134.821C105.031 81.3506 142.246 56.1231 197.354 54.6734Z" fill="#9FC0F5"/>
<path d="M13.0153 63.3735C71.3489 53.3732 115.404 72.3071 130.657 127.962C78.6863 146.709 38.7113 119.509 13.0153 63.3735Z" fill="#FAE469"/>
</svg>
